<?xml version='1.0' encoding='utf-8'?>
<svg xmlns="http://www.w3.org/2000/svg" version="1.1" width="600px" height="976px" viewBox="0 0 600 976"> <g id="layer1"> <g> <g style="fill:rgb(0,0,0); fill-opacity:1.0; stroke-linejoin: miter"> <path d="M597.1354,100.044495C595.6917,100.405396,593.5622,101.9574,590.1334,105.133484C584.7918,110.11426,584.3947,110.763916,584.43085,114.15662C584.4669,115.0589,584.4669,116.32214,584.50305,116.9718C584.50305,117.62152,584.7196,118.23505,584.9361,118.30725C585.261,118.45166,585.40533,119.31781,585.44147,120.941956C585.44147,122.27734,585.6941,124.00983,585.9467,124.80383C586.5964,126.680664,586.5964,133.89917,585.9467,135.52332C584.9,138.12195,584.06995,139.85437,583.56464,140.43188C582.04877,142.12817,576.92365,149.34668,576.92365,149.74365C576.92365,149.9964,573.7114,154.21918,572.12335,156.13208C571.221,157.14264,569.66907,159.05554,568.65845,160.31879C565.6628,164.07239,564.54395,165.44391,563.3529,166.63489C562.7393,167.24847,560.9708,169.19751,559.4549,171.00208C557.939,172.77063,555.593,175.51367,554.25757,177.02954C551.98376,179.55603,549.74603,182.6961,547.3278,186.7384C546.8226,187.56854,546.24506,188.4347,546.0285,188.6513C544.9819,189.7702,541.69745,194.2456,539.0988,198.14362C536.64453,201.82501,534.4068,206.01178,530.7975,213.69946C530.18396,214.99878,530.29224,214.89044,524.87836,219.90735C521.3052,223.19171,518.3817,226.36784,516.8297,228.53337C514.08673,232.43138,509.71957,239.14452,508.9977,240.66045C508.49243,241.671,506.43518,245.46074,504.414,249.1422C502.4289,252.78746,500.76865,255.99968,500.76865,256.25232C500.76865,256.50494,500.62427,256.72156,500.44382,256.72156C500.26337,256.72156,499.9385,257.15466,499.722,257.73212C499.50543,258.27356,498.85574,259.21198,498.2783,259.8255C497.12332,261.05267,496.07666,262.89337,496.07666,263.75958C496.07666,264.04834,495.93228,264.30096,495.7518,264.30096C495.10214,264.30096,492.10648,269.6065,492.10648,270.76147C492.10648,271.9886,491.70947,272.45782,488.60553,274.7677C487.59494,275.56177,486.65652,276.50018,486.51215,276.93323C486.3678,277.40253,485.97076,277.65515,485.39328,277.65515C484.77972,277.65515,484.2744,278.08826,483.58865,279.09882C482.83072,280.25378,482.3976,280.54254,481.56747,280.54254C480.77347,280.54254,480.1238,280.90344,479.25757,281.87793C478.5718,282.59973,478.03043,283.39386,478.03043,283.64648C478.03043,283.89917,477.48904,284.36835,476.80328,284.76526C475.35962,285.52325,474.09637,286.53387,471.24506,289.09644C469.2961,290.901,469.07953,291.00934,467.2749,291.00934C464.965,291.00934,462.29416,292.16425,461.46405,293.5719C461.10312,294.14935,460.12863,295.1239,459.2624,295.73743L457.71045,296.85626L455.14786,296.4593C453.45154,296.1706,452.0078,296.13446,450.88898,296.35098C448.8317,296.74802,448.0377,296.42313,448.72345,295.34036C448.93997,294.9434,449.15652,294.29373,449.15652,293.93277C449.15652,293.53574,449.3009,293.13876,449.48135,292.99435C449.66183,292.88608,449.9145,291.87558,450.05884,290.72055C450.1671,289.6017,450.41977,287.94144,450.60022,287.0391C451.24988,283.71863,452.11612,279.6042,452.44092,278.08826C452.6214,277.25812,452.76578,275.9588,452.76578,275.20087C452.80188,272.45782,453.70416,269.0291,454.60648,268.1989C455.1118,267.72974,455.68924,266.86346,455.978,266.21387C456.6277,264.58972,456.59158,260.29474,455.86972,256.90204C455.54486,255.31395,455.1118,252.75139,454.9313,251.19939C454.75085,249.68358,454.42603,248.09544,454.20947,247.69847C454.02902,247.33751,453.84854,246.5435,453.84854,246.00212C453.84854,245.4246,453.66806,244.77501,453.45154,244.5584C453.19888,244.30577,453.0184,241.81535,452.91016,237.98955C452.83795,234.59691,452.6214,231.49297,452.40482,231.13206C452.2244,230.73503,452.0439,229.90489,452.0439,229.2913C452.0439,228.67778,451.86343,227.84764,451.683,227.48668C451.46643,227.08965,451.06943,225.14073,450.78067,223.15562C450.52805,221.13445,450.0949,219.25761,449.8423,218.93279C449.3009,218.31926,448.61514,217.16429,448.10986,216.1176C447.92938,215.6845,447.53235,215.14311,447.17145,214.85435C446.4496,214.24083,445.5473,212.14738,445.5473,211.06462C445.5473,210.63158,445.29465,210.05406,445.00592,209.80144C444.71716,209.54881,444.46454,209.0435,444.46454,208.68254C444.46454,208.2855,444.32016,207.99675,444.13968,207.99675C443.2735,207.99675,439.98907,204.89287,439.3755,203.48528C438.72583,202.00542,438.61755,201.93327,436.5242,201.57237C435.29706,201.35582,433.92554,200.85051,433.38416,200.4174C432.8067,199.9843,431.90436,199.69554,431.03818,199.69554C430.2802,199.69554,429.19745,199.40678,428.69217,199.04594C428.0064,198.61278,426.31006,198.28795,423.20612,197.99919C417.90054,197.49394,414.7244,197.85484,412.08966,199.19029C411.11517,199.65947,410.10455,200.0565,409.81586,200.0565C409.491,200.0565,409.0579,200.23692,408.80524,200.48961C408.5887,200.7061,407.36157,200.85051,405.80957,200.85051C402.66956,200.7783,401.76724,201.24748,398.87985,204.35149C397.7971,205.54247,396.46167,206.73357,395.8842,207.0584C395.3067,207.38322,394.26,208.35771,393.57428,209.22392C392.88852,210.0902,391.80573,211.06462,391.1561,211.42558C389.6041,212.2918,388.16037,214.52959,388.16037,216.08153C388.16037,216.98375,387.94385,217.45305,387.2942,217.8861C386.64453,218.28313,386.31967,218.93279,386.13922,220.15996C385.99484,221.13445,385.52567,222.46983,385.12863,223.15562C383.86542,225.21286,383.3601,226.4761,383.07138,228.389C382.8909,229.3635,382.4939,231.4208,382.16904,232.90054C381.80814,234.38034,381.55548,236.97897,381.51938,238.67532C381.51938,242.71768,382.24124,249.86398,382.74652,250.3693C383.3601,250.98288,383.14355,251.66855,381.84424,253.004C380.6532,254.23117,380.581,254.41159,380.581,256.86588C380.581,259.5367,381.19458,262.2076,382.16904,263.65128C382.4578,264.1205,383.03528,265.85287,383.43228,267.51315C384.22632,270.79758,384.4068,271.08627,387.5468,274.11807C389.67627,276.21146,389.71237,276.21146,391.914,276.21146L394.11566,276.21146L394.90967,279.56802C395.3428,281.3726,395.99246,284.33218,396.3173,286.13675C396.60605,287.90536,397.03912,289.89047,397.2196,290.50406C397.40005,291.11758,397.54443,291.9838,397.54443,292.4891C397.54443,293.35526,398.41064,296.38705,399.02423,297.57816C399.20465,297.90292,399.45734,298.84134,399.5656,299.67148C399.81824,301.1873,399.5656,301.40396,398.33847,300.79037C395.7398,299.45493,394.98184,299.3466,390.65076,299.67148C387.36636,299.88803,386.7167,299.85196,385.4174,299.23843C384.62332,298.8774,383.14355,298.4443,382.16904,298.26382C381.19458,298.0834,379.6065,297.65024,378.59592,297.2894C377.62143,296.89236,365.06125,288.8077,350.6965,279.2432C326.11758,262.89334,324.5295,261.73837,323.08585,259.75333C319.98187,255.42215,316.0478,252.24606,307.67438,247.26529C306.19455,246.39914,304.2456,245.31638,303.34326,244.88321C300.96118,243.69223,298.25424,241.99582,297.0271,240.87698C295.72778,239.72202,293.67053,238.17007,291.4328,236.69022C289.33942,235.28262,284.17822,230.19363,283.20374,228.56943C282.8067,227.88376,281.68787,226.69266,280.71332,225.97086C277.86206,223.7692,271.87073,217.52524,271.40155,216.22586C269.81345,212.07529,269.0555,209.26004,269.0555,207.74411C269.0555,207.05838,268.91116,206.19217,268.69458,205.8312C268.51413,205.4703,268.1893,203.66568,267.97275,201.82498C267.7562,199.94821,267.43137,197.38559,267.2509,196.08627C267.07043,194.78696,266.81778,192.69363,266.7095,191.39432C266.42078,188.36258,265.98767,187.24368,264.8327,186.73837C263.71384,186.23312,256.60364,185.18637,252.66957,185.00595C248.6994,184.78938,247.43616,185.07814,247.00307,186.26912C246.17293,188.61519,245.92029,188.86781,244.33221,188.86781C243.21335,188.86781,242.56369,189.12044,241.84183,189.77016C240.50642,190.99727,240.61469,192.22444,242.16669,193.19893C242.85243,193.63197,243.4299,194.13734,243.4299,194.3539C243.4299,194.67873,244.33221,195.90584,246.10074,197.96315C247.36397,199.40675,247.97754,201.35579,248.26628,204.82063C248.41066,206.55312,249.96263,210.3428,251.87553,213.5911C252.45302,214.56558,253.31921,216.11758,253.78842,217.01987C254.25763,217.92221,255.05165,219.04105,255.48477,219.54636C256.85626,221.02615,275.1912,248.74509,276.7432,251.66855C278.18686,254.37552,284.39474,262.8572,284.97223,262.8572C285.1527,262.8572,285.2971,263.07376,285.2971,263.36252C285.2971,263.65128,285.58582,264.1205,285.94675,264.37314C286.30765,264.62576,286.70465,265.09494,286.81296,265.3837C286.92123,265.67245,298.543,278.88223,312.65512,294.6907C334.85193,319.63058,338.3168,323.6368,338.49725,324.8279C339.183,329.0507,339.3635,333.05692,339.00256,334.7172C338.64163,336.197,338.67773,336.7023,339.14694,337.7128C339.7966,339.04825,342.46744,340.8168,343.87503,340.8168C344.34424,340.8168,345.02997,341.1417,345.35483,341.50253C345.71573,341.89957,346.50977,342.33267,347.15942,342.47696C347.773,342.5853,348.78357,343.05447,349.36102,343.48764C349.9746,343.95682,350.73254,344.38998,351.05737,344.53433C351.4544,344.67874,351.74316,345.32834,351.8875,346.4111C352.03192,347.31345,352.28455,348.14352,352.46503,348.2518C352.64545,348.36014,352.78986,348.97372,352.78986,349.62332C352.78986,350.27298,353.0064,351.5001,353.29517,352.40244C353.58386,353.2687,354.16132,355.97556,354.59448,358.39377C355.3885,362.6166,355.3885,363.0497,354.99146,370.8456C354.7749,375.24893,354.41397,380.91544,354.23352,383.4058C354.01697,386.47366,354.05307,388.49484,354.3057,389.72202C354.52228,390.80478,354.59445,392.93417,354.45007,395.13583C353.4034,410.69168,353.11465,433.6464,353.8004,444.40195C354.16132,450.24893,355.09973,457.5035,355.56894,458.22537C355.74942,458.478,355.96594,462.8091,356.14642,467.86203C356.79608,490.02274,356.6878,488.07376,357.6984,490.16708C358.23978,491.1777,359.71954,493.12668,361.055,494.4982C362.3904,495.8336,363.65366,497.42172,363.87018,497.99918C364.8447,500.7061,365.13342,502.1498,364.91687,503.44913C364.3033,507.05838,363.94235,512.29175,364.2311,513.6994C364.51984,515.17914,364.8808,515.5762,366.21622,516.0093C366.7937,516.18976,366.7937,516.29803,366.32446,517.453C366.03574,518.1748,365.78308,519.2937,365.78308,520.01556C365.78308,520.7013,365.60263,521.27875,365.38608,521.27875C365.13342,521.27875,365.06122,521.67584,365.1695,522.3255C365.31387,523.01117,365.2056,523.51654,364.8808,523.80524C364.59204,524.0579,364.33942,524.81586,364.33942,525.5016C364.33942,526.22345,364.12283,526.8009,363.79803,526.90924C363.50928,527.0175,363.18445,527.4506,363.04007,527.8476C362.9318,528.2807,362.10165,529.6883,361.23544,531.0598C360.36923,532.3952,359.64737,533.6224,359.64737,533.7668C359.64737,533.91113,359.25037,534.84955,358.7451,535.8962C357.84274,537.80914,357.73447,540.1912,358.38412,543.1147C358.5646,543.9809,358.45633,544.37787,357.6984,545.06366C357.19308,545.5689,356.75998,546.1464,356.75998,546.3991C356.75998,546.6518,356.36298,547.6623,355.8577,548.6368C355.35236,549.6474,354.95535,550.6219,354.95535,550.8746C354.95535,551.1272,354.7388,551.8129,354.45007,552.4265C354.16132,553.0762,353.8726,553.9063,353.8004,554.3033C353.7282,554.7003,353.4395,555.0252,353.15076,555.0252C352.75375,555.0252,352.53717,554.3394,352.32062,552.13776C351.9597,548.1676,350.98523,543.65607,350.29947,542.5733C349.1084,540.6604,348.45874,539.2889,348.45874,538.6392C348.45874,538.27826,347.80908,536.69025,347.01505,535.13824C345.86008,532.86444,345.60742,532.07043,345.7879,531.02374C345.96835,530.0131,345.82397,529.43567,345.1382,528.4251C344.63293,527.70325,343.98328,526.2595,343.62238,525.17676C343.081,523.44434,342.79224,523.08344,341.0959,522.0728C338.46115,520.44867,337.30618,520.196,332.75858,520.196C329.83505,520.2321,328.6079,520.3765,328.10263,520.73737C327.70563,521.0262,327.05594,521.27875,326.65894,521.27875C324.3129,521.27875,318.86295,524.5271,316.44476,527.3783C315.57858,528.35284,314.89282,529.29126,314.89282,529.39954C314.89282,529.5439,314.67624,529.8687,314.45972,530.12134C313.4852,531.2041,313.0882,531.7094,313.0882,531.926C313.0882,532.0343,312.43854,533.0088,311.64447,534.09155C310.85046,535.1743,310.2008,536.1488,310.2008,536.2571C310.2008,536.36536,309.80377,537.08716,309.2985,537.8812C308.54053,539.07227,308.39618,539.75806,308.39618,541.9957C308.39618,544.5944,308.3601,544.7388,307.06076,546.25464C305.25616,548.3119,300.0949,553.36487,298.7956,554.3755C298.2181,554.8086,297.3519,555.45825,296.84662,555.8191C295.15024,557.04626,287.4626,564.9866,287.4626,565.52795C287.4626,565.78064,287.3182,566.0333,287.17386,566.0333C286.99338,566.0333,286.5242,566.71906,286.05496,567.5492C285.62186,568.4154,285.11658,569.35376,284.9361,569.6426C283.81726,571.375,281.6878,577.3302,281.6878,578.6295C281.6878,578.95435,281.54343,579.38745,281.39905,579.56793C280.4246,580.6868,279.45007,588.98804,279.41397,596.1704C279.41397,604.9409,279.8471,606.99817,282.7345,611.5097C284.35864,614.03613,284.75568,614.4332,286.70462,615.66034C288.04004,616.4904,288.54535,616.59875,289.77246,616.3822C290.6026,616.2739,291.5771,616.16565,291.97412,616.16565C296.12476,616.34607,296.41348,616.2739,299.04822,615.0106C301.6108,613.74744,306.51938,609.92163,306.55548,609.12756C306.59158,608.911,306.88028,608.4419,307.27734,608.117C307.8909,607.5756,307.96304,607.5756,308.17963,608.08093C308.6849,609.4524,307.89087,617.7898,306.6277,624.3225C306.4472,625.297,306.26672,627.6791,306.2306,629.5559C306.2306,631.43274,305.97797,634.6089,305.6892,636.5939C304.57037,644.823,304.3538,646.01404,304.06506,646.6998C303.8846,647.0968,303.66803,648.1435,303.5237,649.0458C303.4154,649.912,303.16275,650.81433,303.0184,651.0309C302.5131,651.68054,301.79126,659.18774,301.82733,663.30225C301.9717,674.6353,302.477,681.8899,303.16275,682.97266C303.34323,683.26135,303.632,685.2826,303.7763,687.4842C304.06506,692.32056,304.49817,695.1719,305.07565,696.2185C305.3283,696.6517,305.50873,697.4457,305.50873,697.951C305.50873,698.4563,306.15842,700.26086,306.95245,701.9573C307.7465,703.65356,308.39615,705.16943,308.39615,705.3499C308.39615,705.49426,309.00974,706.7936,309.73154,708.2012C310.92264,710.5834,314.3514,714.37305,315.2537,714.37305C315.43417,714.37305,315.83118,714.8422,316.11993,715.4197C316.7696,716.6469,318.17722,717.5131,321.5699,718.81244C326.94763,720.8336,337.48663,720.9058,341.45676,718.9207C343.1531,718.09064,344.34418,717.54926,347.015,716.43036C347.70078,716.1416,348.6031,715.6002,349.0001,715.2032C349.4332,714.8062,349.93848,714.4092,350.15506,714.337C350.3716,714.26483,352.14014,712.7128,354.05304,710.9443C364.77246,700.8746,367.58768,697.77057,367.58768,696.0021C367.58768,695.60504,367.69595,695.2441,367.87643,695.17194C368.20123,695.0276,370.04196,692.0319,371.05255,690.0468C371.41348,689.2889,372.38794,687.91736,373.182,686.97894C374.01215,686.0766,374.9866,684.8134,375.34756,684.1998C375.74457,683.5502,376.9717,682.0704,378.05447,680.91547C379.13724,679.72437,380.86966,677.81146,381.84418,676.65656C382.85474,675.5015,383.82925,674.38275,384.0097,674.1662C384.22626,673.9135,385.09247,672.68634,385.9587,671.42316C386.86102,670.12384,388.66565,667.9222,390.00104,666.5507C391.33646,665.143,393.10498,663.1941,393.93512,662.21954C394.76526,661.209,395.77585,660.054,396.17285,659.58484C396.53378,659.11566,397.58044,657.74414,398.48276,656.55304C399.38507,655.32587,400.43173,654.0627,400.7927,653.73785C401.1897,653.37695,401.5145,652.9438,401.5145,652.72723C401.5145,652.51074,401.73108,652.1137,401.98373,651.861C402.41684,651.4279,406.9284,645.9419,408.91345,643.4516C409.3827,642.83795,410.682,641.286,411.76477,639.95056C412.88367,638.65125,413.78595,637.388,413.78595,637.24365C413.78595,637.0632,414.0747,636.59393,414.4356,636.19696C414.76044,635.83606,415.69885,634.60895,416.4568,633.52606C418.5501,630.5666,422.7008,625.73016,424.9746,623.6007C428.36725,620.3885,432.19305,617.3206,433.63672,616.67096C433.92548,616.5266,434.82782,616.0213,435.58575,615.55206C436.88507,614.7581,437.35425,614.6859,440.63867,614.722C444.7171,614.7581,446.73828,615.3355,449.80615,617.21234C450.85284,617.826,451.82733,618.3674,452.00775,618.3674C452.18823,618.3674,452.51306,618.61993,452.76575,618.90875C452.9823,619.19745,454.2094,619.9915,455.4005,620.7133C456.62762,621.4352,458.28784,622.4819,459.08185,623.0954C459.87592,623.6729,460.9226,624.4669,461.42792,624.7918C463.52124,626.27155,472.61652,635.2225,482.36145,645.4005C484.63528,647.8187,486.62036,649.7677,486.76474,649.7677C486.94522,649.7677,488.13626,650.77826,489.4356,652.00543C490.7349,653.2686,492.1064,654.42365,492.50342,654.60406C492.86435,654.7845,493.18918,655.1094,493.18918,655.32587C493.18918,655.7951,496.4014,658.97125,499.86627,661.8947C503.1146,664.63776,504.52222,665.8649,506.39902,667.5613C507.19302,668.2831,507.98706,668.89667,508.13144,668.89667C508.45627,668.89667,513.437,672.46985,514.2311,673.2999C514.592,673.6608,514.989,673.94965,515.16943,673.94965C515.31384,673.94965,515.74695,674.23834,516.144,674.5993C516.5049,674.92413,517.5516,675.79034,518.45386,676.51215C519.8976,677.7032,520.90814,678.5334,522.31573,679.72437C522.5684,679.90485,522.9293,680.0853,523.1459,680.0853C523.32635,680.0853,523.5068,680.2297,523.5068,680.4101C523.5068,680.6267,524.5174,681.529,525.78064,682.5035C527.0078,683.44196,528.0906,684.3442,528.12665,684.4886C528.19885,684.63293,528.41534,684.7773,528.5958,684.7773C529.065,684.7773,531.08624,686.97894,531.08624,687.48425C531.08624,688.17,534.118,691.1657,535.5978,691.9597C536.3918,692.39276,537.9438,693.4034,539.02655,694.19745C540.1093,694.99146,541.6974,696.11035,542.5636,696.72394C543.39374,697.30133,544.07947,697.95105,544.07947,698.0954C544.07947,698.2759,544.62085,698.6729,545.27057,698.99774C545.8841,699.3226,546.6781,699.7557,546.96686,699.9C547.58044,700.2609,553.3191,702.4987,555.3403,703.1484C558.33594,704.12286,566.56506,703.5092,569.30804,702.1017C569.63293,701.9212,570.6074,701.5964,571.5097,701.3798C572.41205,701.12714,573.78357,700.65796,574.5776,700.29706C575.3716,699.93616,576.6348,699.43085,577.39276,699.17816C579.0169,698.60065,582.9871,694.8471,584.17816,692.7537C584.61127,691.9597,585.2609,691.2018,585.5496,691.0935C586.1632,690.8769,588.47314,687.91736,588.47314,687.376C588.47314,687.15936,588.72577,686.54584,589.0145,686.00446C589.3032,685.42694,589.5559,684.63293,589.5559,684.2359C589.5559,683.8028,589.77246,683.2614,590.0251,683.04486C590.6387,682.3952,590.6387,664.27686,589.989,662.1474C589.7364,661.2812,589.44763,657.27496,589.3032,652.4024C588.97845,642.2244,589.0145,641.7552,589.4837,637.31586C589.989,632.9847,589.6642,616.74316,589.0506,615.6604C588.83405,615.26337,588.5814,613.8919,588.4371,612.5925C588.04004,608.8389,587.49866,605.48236,587.2099,605.0131C587.06555,604.7605,586.81287,603.49725,586.63245,602.1618C586.3437,599.74365,585.7662,597.03674,584.6834,592.74176C584.3586,591.44244,583.9977,589.89044,583.8894,589.3129C583.7811,588.6994,583.5646,588.0497,583.4202,587.86926C583.2758,587.65265,583.0232,586.85864,582.87885,586.06464C582.73444,585.27057,582.5179,584.4405,582.33746,584.26C582.19305,584.04346,581.8682,581.44476,581.6156,578.4852C581.002,571.0502,580.71326,568.27106,579.99146,563.8678C579.66656,561.7745,579.2696,558.85095,579.1252,557.3351C578.98083,555.81915,578.51166,553.97845,578.1146,553.1845C577.7176,552.4265,577.14014,550.7663,576.8514,549.50305C576.4183,547.6262,576.38214,547.15704,576.77924,546.61566C577.03186,546.29083,577.2845,545.7133,577.2845,545.3524C577.2845,544.9915,577.57324,544.73883,578.00635,544.73883C578.9086,544.73883,579.37787,543.15076,578.69214,542.35675C578.3312,541.92365,578.36725,541.7071,578.94476,541.1296C579.5944,540.4799,579.7027,540.44385,580.71326,540.9852C581.32684,541.31006,582.69836,541.7071,583.7811,541.92365C584.8639,542.10406,586.2354,542.5372,586.84894,542.86206C588.2566,543.5839,592.8764,543.65607,594.6088,542.97034C596.23303,542.3207,599.66174,540.08295,599.66174,539.6859C599.66174,539.14453,603.0906,536.07666,603.70416,536.07666C604.06506,536.07666,604.42596,535.6796,604.5703,535.1744C604.8952,533.80286,604.5703,525.17676,604.13727,524.3466C603.92065,523.94965,603.2349,522.57806,602.62134,521.27875C601.4303,518.8606,597.785,514.63776,595.2585,512.8331C593.27344,511.4256,588.6175,509.3683,586.3437,508.8991C584.0699,508.42987,578.94476,508.42987,569.99384,508.8269L564.0025,509.11566L563.02795,507.1667C561.80084,504.78455,561.33167,504.31537,560.1406,504.31537C559.6353,504.31537,558.62476,504.06274,557.9029,503.774C556.06213,503.01605,545.451,503.01605,543.6103,503.774C542.8884,504.06274,541.6613,504.31537,540.8673,504.31537C540.07324,504.31537,539.3153,504.45972,539.20703,504.67633C539.09875,504.85675,538.5935,505.03723,538.12427,505.03723C537.655,505.03723,536.5362,505.25378,535.70605,505.54248C534.83984,505.79517,533.17957,506.22827,531.9885,506.44482C530.7975,506.69745,529.35376,507.1306,528.8124,507.4193C528.235,507.70807,527.5492,507.92462,527.26044,507.92462C526.64685,507.92462,523.79553,509.3683,523.39856,509.8736C523.0376,510.37885,523.32635,512.2557,523.976,513.7716C524.5174,514.9265,524.77,515.901,525.2032,518.21094C525.31146,518.7884,525.60016,519.43805,525.8167,519.6546C526.3942,520.12384,526.8634,522.7225,526.7912,524.9963C526.7912,525.93475,526.9717,527.08966,527.26044,527.52277C527.94617,528.6055,528.3793,532.2869,527.87396,532.6118C527.4048,532.9006,527.3326,537.8813,527.7657,537.8813C528.3432,537.8813,528.9568,540.5882,529.2455,544.2336C529.4621,546.72394,529.78687,548.27594,530.2922,549.28644C532.49384,553.4732,533.4322,558.0931,532.56604,560.33075C532.24115,561.19696,531.2306,565.70856,530.90576,567.83795C530.65314,569.4621,530.2561,570.07574,529.6064,569.82306C529.10114,569.64264,527.8379,566.97174,527.8379,566.06946C527.8379,565.528,526.8634,562.42413,526.14154,560.7277C525.60016,559.46454,524.12036,557.91254,522.7489,557.2268C521.91876,556.7937,521.8826,556.6854,521.9909,553.6536C522.1353,550.40533,521.95483,549.79175,520.2585,547.08484C519.5366,545.9299,518.99524,544.8471,517.2628,541.1296C516.6493,539.83026,516.0718,538.7114,515.9635,538.60315C515.67474,538.38654,511.66852,530.19366,510.297,527.0536C509.46692,525.0685,509.25034,524.0218,509.06985,520.41254C508.92548,517.52515,508.70895,516.0454,508.4202,515.93713C508.16757,515.8649,507.9871,515.4318,507.9871,514.96265C507.9871,514.4934,507.8427,514.02423,507.6623,513.8798C507.19305,513.6272,506.1825,511.56995,506.1825,510.92023C506.1825,510.66766,506.36295,510.45105,506.5434,510.45105C506.75995,510.45105,506.90433,509.98187,506.90433,509.40442C506.90433,508.79083,506.75995,508.21338,506.5434,508.10504C506.36295,507.99677,506.1825,507.38324,506.1825,506.80573C506.1825,506.19214,505.9659,505.28986,505.6772,504.74847C504.77487,502.94385,503.8726,498.17963,504.30566,497.74652C505.1719,496.8803,504.70267,493.92072,502.89807,489.33704C502.53714,488.32648,502.21234,486.91882,502.21234,486.19696C502.21234,485.4751,502.03186,484.82544,501.85138,484.7533C501.49048,484.64502,501.27393,483.3457,500.40768,476.23547C500.22723,474.57526,499.93848,473.02325,499.79416,472.8067C499.3971,472.15704,498.96402,469.41406,498.60306,465.55212C498.42264,463.56702,498.09778,461.79852,497.88126,461.58197C497.70078,461.4015,497.5203,460.39093,497.5203,459.41644C497.5203,457.68402,496.83453,452.45062,496.07663,448.7331C495.89615,447.83075,495.5713,445.08777,495.35477,442.59735C495.1382,440.107,494.8134,436.7865,494.59683,435.16235C494.3081,432.56366,494.34415,432.0584,494.99384,430.65076C495.39087,429.7846,495.71567,428.7379,495.71567,428.30475C495.71567,427.90778,495.86005,427.4386,496.00443,427.222C496.18488,427.04156,496.618,425.59784,496.9789,424.00977C497.33987,422.42175,497.77295,420.9419,497.91733,420.76147C498.06168,420.54492,498.27826,419.57043,498.42264,418.59595C498.5309,417.58533,498.78354,416.4665,498.96402,416.06946C499.14447,415.67242,499.4693,412.74896,499.68585,409.5728C499.93848,406.39667,500.26334,402.57092,500.4438,401.09113C501.02124,396.18256,501.4183,390.15515,501.45438,386.25714C501.49048,383.47803,501.63483,382.1065,502.06796,381.2403C502.71762,379.97705,503.43948,376.65656,503.9809,372.3255C504.1974,370.88177,504.52228,369.0772,504.7027,368.35535C504.91925,367.59735,505.09973,366.15375,505.09973,365.10706C505.09973,364.09637,505.24414,363.19403,505.38843,363.12195C505.5689,363.04974,506.21857,362.00305,506.83215,360.77588C507.95105,358.5382,508.4563,356.37268,508.88947,351.9333C509.0699,350.23694,509.46692,348.82935,510.3692,347.09692C511.055,345.76154,511.59637,344.53436,511.59637,344.31775C511.59637,344.10126,511.81293,343.6681,512.1016,343.37933C512.3904,343.0545,513.29266,340.67242,514.1228,338.10992C514.989,335.51123,515.89136,332.9126,516.144,332.26294C516.43274,331.6494,516.6493,330.96356,516.6493,330.74707C516.6493,330.53052,516.7937,330.34998,516.9741,330.34998C517.3351,330.34998,522.0632,321.14648,522.0632,320.42468C522.0632,320.172,522.3158,319.88324,522.60455,319.73883C522.89325,319.6306,523.14594,319.23358,523.14594,318.87262C523.14594,318.51172,523.3264,318.04248,523.5429,317.826C523.7956,317.5733,524.2648,316.56274,524.62573,315.5882C524.95056,314.57764,525.6002,313.27832,525.9972,312.7008C526.43036,312.12335,526.7551,311.50977,526.7551,311.2932C526.7551,311.1128,527.26044,310.60754,527.8379,310.13837C528.63196,309.52478,528.9207,309.01947,528.9207,308.15326C528.9207,307.53967,529.24554,306.34857,529.6425,305.51843C530.03955,304.72443,530.3644,303.56952,530.3644,302.992C530.3644,301.07916,529.17334,298.04736,528.0545,297.10895C527.5131,296.67584,527.477,296.3871,527.76575,295.8457C528.19885,295.01556,530.5088,288.9521,534.0819,279.09882C536.0309,273.82935,538.3408,268.52374,542.2027,260.6917C545.1623,254.62817,550.28735,244.23364,553.5718,237.55652C556.8202,230.87946,559.7075,225.32117,559.9241,225.17676C560.1406,225.03241,560.32104,224.59937,560.32104,224.20233C560.32104,222.83081,563.28064,217.59735,564.97705,215.901C567.25085,213.66333,569.34424,211.06464,569.34424,210.45105C569.34424,210.16241,569.4885,209.80145,569.66907,209.5849C569.9939,209.26007,571.7624,206.30048,573.60315,202.94391C575.29944,199.8399,578.25903,193.74036,579.12524,191.57477C579.55835,190.38373,580.13586,189.15662,580.3524,188.86786C580.6051,188.5791,581.0021,187.74902,581.2547,187.0633C582.22925,184.5368,586.5603,176.59644,589.05066,172.77063C589.7004,171.76007,591.1801,169.16138,592.29895,166.99585C595.1864,161.50983,599.8784,154.43567,602.40485,151.8371C605.0396,149.13013,608.6488,145.0517,609.4068,143.93286C609.69556,143.4997,610.59784,142.1643,611.428,141.00928C612.25806,139.8183,613.0521,138.48291,613.1965,137.9776C613.3409,137.47223,613.5935,136.89484,613.774,136.67822C614.568,135.70374,615.5425,131.91406,615.5425,129.85675C615.5425,127.90784,615.65076,127.5108,616.4809,126.75287C617.7441,125.5979,618.8991,122.99927,618.6464,121.88037C618.35767,120.83374,616.6614,119.20953,615.8674,119.20953C614.965,119.20953,614.78455,118.30725,615.362,116.43042C616.12,114.01227,616.0478,113.36255,614.9289,112.099365C613.6657,110.727844,612.619,110.18646,611.2475,110.18646C610.273,110.18646,610.12866,110.04205,610.12866,109.28412C610.12866,108.201355,609.3346,106.54108,608.5045,105.85535C608.1796,105.60272,606.84424,105.20569,605.50885,104.989136L603.1267,104.5921L602.8019,103.04016C602.5492,101.81305,602.2244,101.34381,601.1055,100.62195C599.69794,99.719604,598.8317,99.61139,597.1354,100.044495 Z"/> </g> </g> </g> </svg>