<?xml version='1.0' encoding='utf-8'?>
<svg xmlns="http://www.w3.org/2000/svg" version="1.1" width="600px" height="976px" viewBox="0 0 600 976"> <g id="layer1"> <g style="fill:rgb(223,20,20); fill-opacity:1.0; stroke-linejoin: miter"> </g> <g style="fill:rgb(0,0,0); fill-opacity:1.0; stroke-linejoin: miter"> <path d="M404.27563,406.01215C404.308,406.01218,404.34042,406.0122,404.37292,406.0122C404.33908,406.0122,404.3053,406.01218,404.27158,406.01215 Z M404.4741,406.01215C404.4403,406.01218,404.4066,406.0122,404.37292,406.0122C404.40524,406.0122,404.4376,406.01218,404.47003,406.01215 Z M210.82535,667.642C210.97192,667.64246,211.11797,667.6427,211.2635,667.6427C211.11726,667.6427,210.97052,667.64246,210.82323,667.642 Z M212.09467,667.6402C211.81947,667.6419,211.54243,667.6427,211.2635,667.6427C211.54172,667.6427,211.81804,667.64185,212.09254,667.6402 Z M191.82529,135.84186C187.64143,135.84186,182.56453,137.09087,178.8884,139.26465C173.53215,142.32947,168.98949,147.86414,155.76201,167.45079C131.58151,203.0344,111.090195,241.81783,101.325195,270.5654C94.2624,290.99628,86.60163,335.06778,85.37423,362.20135C84.8171,374.32916,84.8149,374.94598,87.4678,380.50616C92.060196,389.87677,100.982376,395.76788,127.05263,406.85983C134.13515,409.76328,145.62892,415.14938,152.70966,418.56686C166.25452,425.29672,171.68646,429.83908,185.09601,445.71725C191.44283,453.14087,197.4952,456.65747,209.61464,459.57898C216.90675,461.35242,235.80127,466.8678,243.60437,469.46533C244.4259,469.67383,240.05783,483.94696,231.53867,509.20404C220.11188,542.7772,208.77863,578.92053,208.66638,581.5928C208.65776,581.7386,208.62865,581.80975,208.5801,581.80975C207.39642,581.80975,194.6568,539.5132,185.39998,504.7224C182.55898,494.22717,179.10732,482.08508,177.68391,477.6599C176.2605,473.23468,175.14484,469.0162,175.14777,468.1937C175.15033,467.4742,174.64001,466.44443,173.92194,466.03073C172.48608,465.10043,154.60376,464.00876,104.24239,461.77353C83.069916,460.87595,63.85092,459.88223,61.590546,459.56583C56.96677,459.03543,24.695545,457.2759,0.43963602,456.2642C-8.296749,455.9247,-25.357838,455.14444,-37.48521,454.48453C-46.699593,453.99542,-52.107754,453.72238,-55.38162,453.72238C-59.483982,453.72238,-60.235123,454.1511,-60.924583,455.12057C-62.78396,457.6838,-62.595604,462.51584,-60.24972,467.6639C-59.127346,470.03207,-56.584934,477.7509,-54.656406,484.64502C-52.625095,491.53943,-48.256203,505.94617,-45.005287,516.7512C-41.75389,527.4534,-35.55596,547.829,-31.289116,562.0298C-19.19946,602.1626,-13.405088,620.378,-11.772399,623.77594C-10.955932,625.42365,-7.68048,629.3415,-4.504455,632.3338L1.335327,637.8028L-7.3999014,637.15485C-12.23004,636.8293,-23.740355,636.0689,-33.09271,635.52155C-42.445065,634.9742,-56.626816,633.8956,-64.6425,633.25037C-71.8146,632.6422,-78.794266,632.3443,-85.22495,632.3443C-96.94591,632.3443,-106.84308,633.33386,-112.757416,635.2378C-119.343475,637.27014,-135.30527,645.33417,-189.99057,673.8191C-200.18611,679.1281,-211.41179,685.05023,-215.01576,686.78485L-215.24014,686.90326L-215.22234,687.24817L-215.24883,686.7351L-215.25098,686.7351Q-216.65802,687.8682,-218.31297,689.2371Q-221.18156,691.2686,-221.94034,691.9153Q-222.17448,692.0553,-223.07224,692.91406L-223.06999,692.91406Q-222.55878,692.9158,-221.9743,692.9423L-221.93684,692.94403Q-221.30324,692.97125,-220.80809,693.0332L-218.67352,693.3775Q-215.60475,693.6405,-215.3294,693.747L-212.13264,694.3707L-211.55965,694.52057L-211.55753,694.52057C-208.83691,694.6965,-205.6655,694.88245,-202.40154,695.0533C-193.87077,695.39215,-179.79066,696.1619,-171.05507,696.70685C-162.31984,697.3547,-140.12059,698.56464,-121.723495,699.45245C-103.32646,700.3404,-82.771904,701.54425,-75.98974,702.18524C-69.20751,702.8261,-43.00006,704.25574,-17.614136,705.4768C7.6689453,706.69763,33.77368,708.12683,40.453064,708.76746C47.029972,709.3049,68.200935,710.61395,87.42036,711.5046C106.63942,712.4982,127.502396,713.7033,133.66817,714.2392C139.93666,714.77545,160.69658,716.08295,179.91594,716.9738C199.13536,717.86456,219.99797,719.1723,226.16376,719.7083C237.77612,720.67487,240.24237,720.8892,296.56424,723.55676C314.96136,724.4447,335.72162,725.6493,342.812,726.2914C368.20792,728.3605,394.598,729.48193,414.625,729.48193C426.85178,729.48193,436.70688,729.0639,442.51608,728.18835C447.86435,727.38513,482.84363,719.1832,520.1912,709.8591C557.5385,700.6379,591.5935,692.2271,595.81165,691.2142C613.0956,687.1639,621.42926,685.1377,629.24884,683.10974C637.58307,680.8779,641.49255,679.9667,657.64453,676.22076C667.41766,674.09674,670.815,672.66974,669.0715,671.5329C667.5329,670.6021,647.9092,667.7569,617.8039,663.9489C594.9937,661.09235,593.9666,660.8831,594.3851,658.8287C596.5777,649.2767,603.77106,621.0339,607.31055,608.5054C609.6024,599.9817,612.7345,586.4239,614.2029,578.2054C615.67114,569.987,617.9785,557.14594,619.44434,549.64716C624.4712,523.55536,625.43555,512.55975,625.00256,489.8405C624.745,475.5512,624.05566,467.01672,623.04016,463.51807C620.4012,454.05157,606.0229,421.5174,602.3404,416.46735C595.2822,406.67664,576.1008,395.09546,549.8229,384.61963C531.2436,377.1522,518.0085,370.01218,512.9898,364.85458C510.73712,362.3795,506.13495,355.7844,502.96844,350.11935C499.80206,344.4543,494.48535,336.4175,491.10742,332.3965C487.83264,328.27286,485.07068,324.45987,485.07288,323.84293C485.0747,323.3289,484.35693,322.8124,483.53455,322.80948C482.19836,322.80472,482.09692,322.39334,483.02795,320.75186C483.64795,319.6247,484.57507,318.70367,485.19177,318.70367L485.19757,318.70367C487.15207,318.70367,491.28174,313.06604,495.83472,303.8365C499.66492,296.346,500.9126,292.3416,502.5913,282.78766C508.9926,246.00992,509.58636,223.6027,504.70685,208.26909C501.35144,197.87479,497.77393,192.2084,490.19165,185.29422C482.7124,178.38028,462.90884,168.33879,451.91873,165.83257C448.03653,164.95073,443.6043,164.5157,439.07654,164.5157C432.34387,164.5157,425.39987,165.47757,419.73868,167.3626C404.9187,172.24403,380.08707,188.60268,364.71747,203.55618C357.49677,210.62306,357.18658,211.136,354.89435,219.76247C353.43585,225.20546,352.9079,229.10976,353.41864,230.03676C353.93,230.75807,354.3028,241.55298,354.3614,253.99121C354.3003,271.15775,354.68506,278.56033,355.99915,284.83536C356.9082,289.3616,358.4131,299.74927,359.20618,307.9756C360.7915,324.63403,361.1974,326.17725,369.15555,342.9612C374.80737,355.13126,376.10898,358.25784,375.46722,358.25784C375.414,358.25784,375.3474,358.23633,375.26883,358.1967C374.75565,357.98917,372.19058,356.6437,369.31754,355.19437C366.54764,353.6426,360.38846,351.25638,355.66544,349.69766C348.2725,347.40994,345.29276,346.9882,334.08835,346.94827C333.86877,346.94748,333.64954,346.94708,333.43057,346.94708C319.39996,346.94708,306.51508,348.55948,285.5491,352.63452C274.27557,354.88577,269.92474,355.2995,256.0213,355.2995C254.95471,355.2995,253.83192,355.2971,252.64548,355.29285C235.47903,355.2318,231.3687,354.80603,210.61699,351.23706C188.11884,347.35364,169.11845,342.66013,163.1671,339.65793C161.52574,338.7269,159.98972,337.0767,159.686,335.7393C156.75406,321.9544,155.36838,278.05612,157.38228,260.99957C159.50471,242.29842,164.81738,222.5809,169.57104,215.50497C172.06268,212.04309,172.43825,211.73042,177.4454,211.73042C177.62854,211.73042,177.81787,211.73083,178.01373,211.73154C178.0462,211.73166,178.07864,211.7317,178.11104,211.7317C182.18242,211.7317,185.76376,210.81798,190.4623,208.79504C233.8061,189.82957,231.5389,191.46617,227.66676,181.89256C226.03633,177.87756,225.63509,175.10071,226.05464,172.73804C226.57845,169.96436,226.1728,168.42102,224.02559,165.2268C219.42392,158.42604,199.96568,138.00333,196.78392,136.65579C195.46371,136.10284,193.73781,135.84186,191.82529,135.84186 Z"/> </g> <g style="fill:rgb(255,195,176); fill-opacity:1.0; stroke-linejoin: miter"> </g> </g> </svg>