<?xml version='1.0' encoding='utf-8'?>
<svg xmlns="http://www.w3.org/2000/svg" version="1.1" id="Capa_1" x="0px" y="0px" viewBox="0 0 612 792" style="enable-background:new 0 0 612 792;"> <style type="text/css"> .st0{fill:#F4C3C3;} .st1{fill:#F4B0B0;} .st2{fill:none;stroke:#F4B0B0;stroke-width:5;stroke-miterlimit:10;} .st3{fill:#F29999;} .st4{fill:none;stroke:#1D1D1B;stroke-miterlimit:10;} .st5{fill:#432918;} .st6{fill:#FFFFFF;} .st7{fill:#EF8686;} </style> <path class="st0" d="M426.3,416.5c0-57.7-53.8-104.5-120.3-104.5s-120.3,46.8-120.3,104.5c0,31.8,16.4,60.4,42.3,79.5v17.8 c0,9.8,6,17.7,13.5,17.7h16c2.9,0,5.6-1.2,7.8-3.3c1.4,7.8,6.7,13.7,13.1,13.7h16c7.4,0,13.5-7.9,13.5-17.7V521 c5.6-0.1,11.2-0.5,16.6-1.2c2.4,5.7,6.6,9.4,11.3,9.4h6.3c2,7.4,6.8,12.7,12.4,12.7h16c7.4,0,13.5-9.3,13.5-20.7v-25 C409.8,477,426.3,448.4,426.3,416.5z"/> <g> <g> <path class="st1" d="M424.2,394.8c4.3-3.3,9.7-5.1,15-3.1c2.8,1,5.2,3.3,6.1,6.2c1.2,3.7-1.7,8.2-5.8,5.5 c-5.4-3.6-1.8-10.9,2-14.2c4.1-3.6,9.4-4.9,14.7-4.4c3.2,0.3,3.2-4.7,0-5c-9.3-0.8-19.6,3.8-23.3,12.8c-2.9,7.1,0.8,17.5,9.8,16.6 c9.1-0.9,9.5-11.5,4.8-17.4c-6.5-8.1-18.3-7.1-25.9-1.3C419.2,392.4,421.7,396.8,424.2,394.8L424.2,394.8z"/> </g> </g> <polygon class="st1" points="184.1,347 195.5,380.2 218.8,352.3 "/> <ellipse class="st0" cx="306" cy="416.5" rx="120.3" ry="104.5"/> <g> <path class="st1" d="M228,513.8c0,9.8,6,17.7,13.5,17.7h16c6.8,0,12.3-6.6,13.3-15.1c-15.9-4.2-30.4-11.3-42.8-20.4V513.8z"/> </g> <g> <path class="st1" d="M335.7,529.2h16c7.4,0,13.5-9.3,13.5-20.7v-1c-12.4,6.1-26.1,10.3-40.7,12.3 C326.8,525.4,331,529.2,335.7,529.2z"/> </g> <ellipse class="st1" cx="210.2" cy="426.7" rx="33.8" ry="30.7"/> <path class="st2" d="M206.5,463.9c6.3,4.8,15.8,4.5,21.9-0.5"/> <circle class="st3" cx="189" cy="426.7" r="5.7"/> <circle class="st3" cx="217.4" cy="426.7" r="5.7"/> <polygon class="st1" points="303.8,358.9 269,362.5 290.8,391.4 "/> <path class="st4" d="M262,335"/> <g> <path class="st0" d="M340.9,521.2c0,11.4,6,20.7,13.5,20.7h16c7.4,0,13.5-9.3,13.5-20.7v-25c-12.4,9.2-27,16.2-42.9,20.4V521.2z"/> </g> <g> <path class="st0" d="M264.9,514.7v9.4c0,9.8,6,17.7,13.5,17.7h16c7.4,0,13.5-7.9,13.5-17.7V521c-0.6,0-1.2,0-1.9,0 C291.6,521,277.7,518.8,264.9,514.7z"/> </g> <circle class="st5" cx="199.5" cy="388.2" r="7.8"/> <circle class="st6" cx="196.6" cy="388.1" r="2.9"/> <circle class="st5" cx="249.5" cy="393" r="7.8"/> <circle class="st6" cx="246.6" cy="392.9" r="2.9"/> <g> <path class="st7" d="M267.1,331.7c-1.7-0.1-3.2-1.1-3.8-2.8c-0.8-2.2,0.3-4.6,2.5-5.4c1.6-0.6,38.7-14,80.1-1 c2.2,0.7,3.5,3.1,2.8,5.3c-0.7,2.2-3.1,3.5-5.3,2.8c-38.6-12.1-74.3,0.7-74.6,0.9C268.2,331.6,267.6,331.7,267.1,331.7z"/> </g> <path class="st3" d="M264,330c0.4-0.5,1-0.9,1.7-1.2c1.6-0.6,38.5-14.5,80.1-2.1c1,0.3,1.5,1.5,2.3,2c1.9-2.3,0.8-6.6-2.2-7.4 c-41.6-12.4-78.5,1.5-80.1,2.1c-2.2,0.8-3.3,3.3-2.4,5.5C263.5,329.3,263.8,329.7,264,330z"/> </svg>